Coordinates
version=1
nRows=5
nColumns=40
inDegrees=yes

Units are S.I. units (second, meters, Newtons, ...)
Angles are in degrees.

endheader
time	pelvis_tilt	pelvis_list	pelvis_rotation	pelvis_tx	pelvis_ty	pelvis_tz	hip_flexion_r	hip_adduction_r	hip_rotation_r	knee_angle_r	knee_angle_r_beta	ankle_angle_r	subtalar_angle_r	mtp_angle_r	hip_flexion_l	hip_adduction_l	hip_rotation_l	knee_angle_l	knee_angle_l_beta	ankle_angle_l	subtalar_angle_l	mtp_angle_l	lumbar_extension	lumbar_bending	lumbar_rotation	arm_flex_r	arm_add_r	arm_rot_r	elbow_flex_r	pro_sup_r	wrist_flex_r	wrist_dev_r	arm_flex_l	arm_add_l	arm_rot_l	elbow_flex_l	pro_sup_l	wrist_flex_l	wrist_dev_l
     38.44000000	     -4.06428839	     -5.01431838	      1.42477590	      0.89106427	      0.92822373	      0.50829844	     14.66178977	      3.02023476	    -13.64631959	     18.70497097	     18.70497097	     10.09062704	     -1.91555892	     -4.56145058	     30.18103696	    -11.15425125	      0.82789415	     58.26366544	     58.26366544	     15.28794113	    -19.39644203	     19.36624546	    -10.79045703	      7.51762847	      2.79951077	     16.22594759	    -18.78507666	     -0.90672766	     50.79350433	     44.74417546	      0.00000000	      0.00000000	      1.93464642	     -9.16236209	     -7.42591916	     47.39829557	     44.93099742	      0.00000000	      0.00000000
     38.45328571	     -4.16081749	     -4.82110241	      1.74483471	      0.88994468	      0.92864548	      0.50867793	     14.13746999	      2.88496389	    -13.74132213	     18.34300036	     18.34300036	     10.36846315	     -1.95526070	     -4.68861108	     31.08250765	    -10.89179722	      0.82090134	     55.46875129	     55.46875129	     15.34219398	    -19.35483244	     19.70278844	    -10.70023230	      7.20276995	      2.18572440	     17.70447388	    -18.58521587	     -1.00546022	     52.58198838	     44.70156108	      0.00000000	      0.00000000	      0.98491990	     -9.37034253	     -7.50453416	     45.69830186	     44.94184971	      0.00000000	      0.00000000
     38.46657143	     -4.24304585	     -4.66729512	      2.05326520	      0.88887193	      0.92906444	      0.50905297	     13.53473287	      2.80862429	    -13.87168929	     17.85629588	     17.85629588	     10.60442929	     -1.93057231	     -4.79463933	     31.74175973	    -10.62310328	      0.81153246	     52.31420581	     52.31420581	     15.09784366	    -19.30228540	     19.78418865	    -10.61116979	      6.92456132	      1.75206685	     19.00633210	    -18.56201546	     -1.03837059	     54.71427308	     44.64214932	      0.00000000	      0.00000000	      0.18812230	     -9.45563010	     -7.65694367	     43.88294268	     44.95942506	      0.00000000	      0.00000000
     38.47985714	     -4.29262229	     -4.63281102	      2.35392226	      0.88788894	      0.92933391	      0.50931575	     12.90046838	      2.83730041	    -14.12332753	     17.36086288	     17.36086288	     10.65971644	     -1.78245114	     -5.47622925	     32.14846596	    -10.45019665	      0.81055166	     48.82991698	     48.82991698	     14.18795532	    -19.23705720	     18.17628194	    -10.63411454	      6.90856716	      2.51451455	     18.25544666	    -19.95335294	     -0.71901250	     60.95777668	     44.46470016	      0.00000000	      0.00000000	      1.45751277	     -8.79582387	     -8.95388200	     38.51356379	     45.20542157	      0.00000000	      0.00000000
     38.49314286	     -4.37257998	     -4.46915198	      2.61364699	      0.88694327	      0.92961015	      0.50951775	     12.32934122	      2.74975321	    -14.17000524	     16.93210541	     16.93210541	     10.91036868	     -1.80717060	     -5.50849746	     32.41226798	    -10.03510901	      0.87733739	     45.20844413	     45.20844413	     13.71116474	    -19.10529766	     18.40292522	    -10.56379145	      6.63163090	      2.09611919	     19.63290819	    -19.71552169	     -1.04997832	     62.76165943	     44.43145324	      0.00000000	      0.00000000	      0.51199505	     -8.96380393	     -9.01032168	     37.38847360	     45.21242908	      0.00000000	      0.00000000
